<svg width="73" height="23" viewBox="0 0 73 23" fill="none" xmlns="http://www.w3.org/2000/svg">
<rect width="73" height="23" rx="4" fill="white"/>
<path fill-rule="evenodd" clip-rule="evenodd" d="M18.7117 10.44C19.4099 10.9737 19.4099 12.0251 18.7117 12.5587L15.6584 14.8924C14.781 15.5629 13.5154 14.9373 13.5154 13.833V9.16575C13.5154 8.06144 14.781 7.43581 15.6584 8.1064L18.7117 10.44ZM17.902 11.4994L14.8487 9.16575L14.8487 13.833L17.902 11.4994Z" fill="#424551"/>
<path fill-rule="evenodd" clip-rule="evenodd" d="M15.9998 5.49935C12.6861 5.49935 9.99984 8.18564 9.99984 11.4993C9.99984 14.8131 12.6861 17.4993 15.9998 17.4993C19.3135 17.4993 21.9998 14.8131 21.9998 11.4993C21.9998 8.18564 19.3135 5.49935 15.9998 5.49935ZM8.6665 11.4993C8.6665 7.44926 11.9497 4.16602 15.9998 4.16602C20.0499 4.16602 23.3332 7.44926 23.3332 11.4993C23.3332 15.5494 20.0499 18.8327 15.9998 18.8327C11.9497 18.8327 8.6665 15.5494 8.6665 11.4993Z" fill="#424551"/>
<path d="M28.056 6.969H29.141C29.2623 6.969 29.3603 6.99933 29.435 7.06C29.5097 7.12067 29.5657 7.19767 29.603 7.291L32.438 14.368C32.5033 14.5267 32.5617 14.6993 32.613 14.886C32.669 15.0727 32.7227 15.2663 32.774 15.467C32.816 15.2663 32.8603 15.0727 32.907 14.886C32.9583 14.6993 33.0167 14.5267 33.082 14.368L35.903 7.291C35.9357 7.21167 35.9917 7.13933 36.071 7.074C36.1503 7.004 36.2483 6.969 36.365 6.969H37.457L33.369 17H32.144L28.056 6.969ZM39.9236 9.909V17H38.6776V9.909H39.9236ZM40.2036 7.683C40.2036 7.80433 40.178 7.91867 40.1266 8.026C40.08 8.12867 40.0146 8.222 39.9306 8.306C39.8513 8.38533 39.758 8.44833 39.6506 8.495C39.5433 8.54167 39.429 8.565 39.3076 8.565C39.1863 8.565 39.072 8.54167 38.9646 8.495C38.862 8.44833 38.7686 8.38533 38.6846 8.306C38.6053 8.222 38.5423 8.12867 38.4956 8.026C38.449 7.91867 38.4256 7.80433 38.4256 7.683C38.4256 7.56167 38.449 7.44733 38.4956 7.34C38.5423 7.228 38.6053 7.13233 38.6846 7.053C38.7686 6.969 38.862 6.90367 38.9646 6.857C39.072 6.81033 39.1863 6.787 39.3076 6.787C39.429 6.787 39.5433 6.81033 39.6506 6.857C39.758 6.90367 39.8513 6.969 39.9306 7.053C40.0146 7.13233 40.08 7.228 40.1266 7.34C40.178 7.44733 40.2036 7.56167 40.2036 7.683ZM47.1107 17C46.9333 17 46.8213 16.9137 46.7747 16.741L46.6627 15.88C46.3593 16.2487 46.0117 16.545 45.6197 16.769C45.2323 16.9883 44.7867 17.098 44.2827 17.098C43.8767 17.098 43.508 17.021 43.1767 16.867C42.8453 16.7083 42.563 16.4773 42.3297 16.174C42.0963 15.8707 41.9167 15.4927 41.7907 15.04C41.6647 14.5873 41.6017 14.067 41.6017 13.479C41.6017 12.9563 41.6717 12.471 41.8117 12.023C41.9517 11.5703 42.1523 11.1783 42.4137 10.847C42.6797 10.5157 43.0017 10.2567 43.3797 10.07C43.7577 9.87867 44.187 9.783 44.6677 9.783C45.1017 9.783 45.4727 9.85767 45.7807 10.007C46.0887 10.1517 46.364 10.357 46.6067 10.623V6.689H47.8527V17H47.1107ZM44.6957 16.09C45.1017 16.09 45.4563 15.9967 45.7597 15.81C46.0677 15.6233 46.35 15.3597 46.6067 15.019V11.589C46.378 11.281 46.126 11.0663 45.8507 10.945C45.58 10.819 45.279 10.756 44.9477 10.756C44.285 10.756 43.7763 10.9917 43.4217 11.463C43.067 11.9343 42.8897 12.6063 42.8897 13.479C42.8897 13.941 42.9293 14.3377 43.0087 14.669C43.088 14.9957 43.2047 15.2663 43.3587 15.481C43.5127 15.691 43.7017 15.845 43.9257 15.943C44.1497 16.041 44.4063 16.09 44.6957 16.09ZM52.747 9.797C53.1716 9.797 53.5636 9.86933 53.923 10.014C54.2823 10.154 54.5926 10.3593 54.854 10.63C55.1153 10.896 55.3183 11.2273 55.463 11.624C55.6123 12.016 55.687 12.464 55.687 12.968C55.687 13.164 55.666 13.2947 55.624 13.36C55.582 13.4253 55.5026 13.458 55.386 13.458H50.668C50.6773 13.906 50.738 14.2957 50.85 14.627C50.962 14.9583 51.116 15.236 51.312 15.46C51.508 15.6793 51.7413 15.845 52.012 15.957C52.2826 16.0643 52.586 16.118 52.922 16.118C53.2346 16.118 53.503 16.083 53.727 16.013C53.9556 15.9383 54.1516 15.859 54.315 15.775C54.4783 15.691 54.6136 15.614 54.721 15.544C54.833 15.4693 54.9286 15.432 55.008 15.432C55.1106 15.432 55.19 15.4717 55.246 15.551L55.596 16.006C55.442 16.1927 55.2576 16.356 55.043 16.496C54.8283 16.6313 54.5973 16.7433 54.35 16.832C54.1073 16.9207 53.8553 16.986 53.594 17.028C53.3326 17.0747 53.0736 17.098 52.817 17.098C52.327 17.098 51.8743 17.0163 51.459 16.853C51.0483 16.685 50.6913 16.4423 50.388 16.125C50.0893 15.803 49.856 15.4063 49.688 14.935C49.52 14.4637 49.436 13.9223 49.436 13.311C49.436 12.8163 49.5106 12.3543 49.66 11.925C49.814 11.4957 50.0333 11.1247 50.318 10.812C50.6026 10.4947 50.9503 10.2473 51.361 10.07C51.7716 9.888 52.2336 9.797 52.747 9.797ZM52.775 10.714C52.173 10.714 51.6993 10.889 51.354 11.239C51.0086 11.5843 50.794 12.065 50.71 12.681H54.567C54.567 12.3917 54.5273 12.128 54.448 11.89C54.3686 11.6473 54.252 11.4397 54.098 11.267C53.944 11.0897 53.755 10.9543 53.531 10.861C53.3116 10.763 53.0596 10.714 52.775 10.714ZM60.1518 9.797C60.6698 9.797 61.1364 9.88333 61.5518 10.056C61.9718 10.2287 62.3264 10.4737 62.6158 10.791C62.9098 11.1083 63.1338 11.4933 63.2878 11.946C63.4464 12.394 63.5258 12.8957 63.5258 13.451C63.5258 14.011 63.4464 14.515 63.2878 14.963C63.1338 15.411 62.9098 15.7937 62.6158 16.111C62.3264 16.4283 61.9718 16.6733 61.5518 16.846C61.1364 17.014 60.6698 17.098 60.1518 17.098C59.6338 17.098 59.1648 17.014 58.7448 16.846C58.3294 16.6733 57.9748 16.4283 57.6808 16.111C57.3868 15.7937 57.1604 15.411 57.0018 14.963C56.8431 14.515 56.7638 14.011 56.7638 13.451C56.7638 12.8957 56.8431 12.394 57.0018 11.946C57.1604 11.4933 57.3868 11.1083 57.6808 10.791C57.9748 10.4737 58.3294 10.2287 58.7448 10.056C59.1648 9.88333 59.6338 9.797 60.1518 9.797ZM60.1518 16.125C60.8518 16.125 61.3744 15.8917 61.7198 15.425C62.0651 14.9537 62.2378 14.298 62.2378 13.458C62.2378 12.6133 62.0651 11.9553 61.7198 11.484C61.3744 11.0127 60.8518 10.777 60.1518 10.777C59.7971 10.777 59.4891 10.8377 59.2278 10.959C58.9664 11.0803 58.7471 11.2553 58.5698 11.484C58.3971 11.7127 58.2664 11.995 58.1778 12.331C58.0938 12.6623 58.0518 13.038 58.0518 13.458C58.0518 13.878 58.0938 14.2537 58.1778 14.585C58.2664 14.9163 58.3971 15.1963 58.5698 15.425C58.7471 15.649 58.9664 15.8217 59.2278 15.943C59.4891 16.0643 59.7971 16.125 60.1518 16.125Z" fill="#424551"/>
</svg>
