<svg width="78" height="23" viewBox="0 0 78 23" fill="none" xmlns="http://www.w3.org/2000/svg">
<rect width="78" height="23" rx="4" fill="white"/>
<path fill-rule="evenodd" clip-rule="evenodd" d="M13.3335 12.5007C13.3335 12.1325 13.632 11.834 14.0002 11.834H18.0002C18.3684 11.834 18.6668 12.1325 18.6668 12.5007C18.6668 12.8688 18.3684 13.1673 18.0002 13.1673H14.0002C13.632 13.1673 13.3335 12.8688 13.3335 12.5007Z" fill="#424551"/>
<path fill-rule="evenodd" clip-rule="evenodd" d="M13.3335 15.0007C13.3335 14.6325 13.632 14.334 14.0002 14.334H16.0002C16.3684 14.334 16.6668 14.6325 16.6668 15.0007C16.6668 15.3688 16.3684 15.6673 16.0002 15.6673H14.0002C13.632 15.6673 13.3335 15.3688 13.3335 15.0007Z" fill="#424551"/>
<path fill-rule="evenodd" clip-rule="evenodd" d="M14.0288 4.52925C14.1538 4.40422 14.3234 4.33398 14.5002 4.33398H19.0002C20.4729 4.33398 21.6668 5.52789 21.6668 7.00065L21.6668 16.0007C21.6668 17.4734 20.4729 18.6673 19.0002 18.6673H13.0002C11.5274 18.6673 10.3335 17.4734 10.3335 16.0006L10.3335 8.50065C10.3335 8.32384 10.4038 8.15427 10.5288 8.02925L14.0288 4.52925ZM14.3335 6.11015V8.33398H12.1097L14.3335 6.11015ZM11.6668 9.66732L11.6668 16.0006C11.6668 16.737 12.2638 17.334 13.0002 17.334H19.0002C19.7366 17.334 20.3335 16.737 20.3335 16.0007L20.3335 7.00065C20.3335 6.26427 19.7366 5.66732 19.0002 5.66732H15.6668V9.00065C15.6668 9.36884 15.3683 9.66732 15.0002 9.66732H11.6668Z" fill="#424551"/>
<path d="M37.471 17H36.421C36.2997 17 36.2017 16.9697 36.127 16.909C36.0523 16.8483 35.9963 16.7713 35.959 16.678L35.021 14.256H30.52L29.582 16.678C29.5493 16.762 29.4933 16.8367 29.414 16.902C29.3347 16.9673 29.2367 17 29.12 17H28.07L32.081 6.969H33.46L37.471 17ZM30.898 13.276H34.643L33.068 9.195C32.9653 8.943 32.865 8.628 32.767 8.25C32.7157 8.44133 32.6643 8.61867 32.613 8.782C32.5663 8.94067 32.5197 9.08067 32.473 9.202L30.898 13.276ZM38.5376 17V9.909H39.2516C39.387 9.909 39.4803 9.93467 39.5316 9.986C39.583 10.0373 39.618 10.126 39.6366 10.252L39.7206 11.358C39.9633 10.8633 40.262 10.4783 40.6166 10.203C40.976 9.923 41.396 9.783 41.8766 9.783C42.0726 9.783 42.25 9.80633 42.4086 9.853C42.5673 9.895 42.7143 9.95567 42.8496 10.035L42.6886 10.966C42.656 11.0827 42.5836 11.141 42.4716 11.141C42.4063 11.141 42.306 11.12 42.1706 11.078C42.0353 11.0313 41.8463 11.008 41.6036 11.008C41.1696 11.008 40.8056 11.134 40.5116 11.386C40.2223 11.638 39.9796 12.0043 39.7836 12.485V17H38.5376ZM46.3331 17.112C45.7731 17.112 45.3414 16.9557 45.0381 16.643C44.7394 16.3303 44.5901 15.88 44.5901 15.292V10.952H43.7361C43.6614 10.952 43.5984 10.931 43.5471 10.889C43.4958 10.8423 43.4701 10.7723 43.4701 10.679V10.182L44.6321 10.035L44.9191 7.844C44.9284 7.774 44.9588 7.718 45.0101 7.676C45.0614 7.62933 45.1268 7.606 45.2061 7.606H45.8361V10.049H47.8661V10.952H45.8361V15.208C45.8361 15.5067 45.9084 15.7283 46.0531 15.873C46.1978 16.0177 46.3844 16.09 46.6131 16.09C46.7438 16.09 46.8558 16.0737 46.9491 16.041C47.0471 16.0037 47.1311 15.964 47.2011 15.922C47.2711 15.88 47.3294 15.8427 47.3761 15.81C47.4274 15.7727 47.4718 15.754 47.5091 15.754C47.5744 15.754 47.6328 15.7937 47.6841 15.873L48.0481 16.468C47.8334 16.6687 47.5744 16.8273 47.2711 16.944C46.9678 17.056 46.6551 17.112 46.3331 17.112ZM50.7928 9.909V17H49.5468V9.909H50.7928ZM51.0728 7.683C51.0728 7.80433 51.0471 7.91867 50.9958 8.026C50.9491 8.12867 50.8838 8.222 50.7998 8.306C50.7204 8.38533 50.6271 8.44833 50.5198 8.495C50.4124 8.54167 50.2981 8.565 50.1768 8.565C50.0554 8.565 49.9411 8.54167 49.8338 8.495C49.7311 8.44833 49.6378 8.38533 49.5538 8.306C49.4744 8.222 49.4114 8.12867 49.3648 8.026C49.3181 7.91867 49.2948 7.80433 49.2948 7.683C49.2948 7.56167 49.3181 7.44733 49.3648 7.34C49.4114 7.228 49.4744 7.13233 49.5538 7.053C49.6378 6.969 49.7311 6.90367 49.8338 6.857C49.9411 6.81033 50.0554 6.787 50.1768 6.787C50.2981 6.787 50.4124 6.81033 50.5198 6.857C50.6271 6.90367 50.7204 6.969 50.7998 7.053C50.8838 7.13233 50.9491 7.228 50.9958 7.34C51.0471 7.44733 51.0728 7.56167 51.0728 7.683ZM57.8258 11.169C57.7885 11.2203 57.7511 11.26 57.7138 11.288C57.6765 11.316 57.6228 11.33 57.5528 11.33C57.4828 11.33 57.4058 11.302 57.3218 11.246C57.2425 11.1853 57.1398 11.12 57.0138 11.05C56.8878 10.98 56.7338 10.917 56.5518 10.861C56.3745 10.8003 56.1551 10.77 55.8938 10.77C55.5485 10.77 55.2428 10.833 54.9768 10.959C54.7108 11.0803 54.4868 11.2577 54.3048 11.491C54.1275 11.7243 53.9921 12.0067 53.8988 12.338C53.8101 12.6693 53.7658 13.0403 53.7658 13.451C53.7658 13.8803 53.8148 14.263 53.9128 14.599C54.0108 14.9303 54.1485 15.2103 54.3258 15.439C54.5031 15.663 54.7178 15.8357 54.9698 15.957C55.2265 16.0737 55.5135 16.132 55.8308 16.132C56.1341 16.132 56.3838 16.097 56.5798 16.027C56.7758 15.9523 56.9391 15.8707 57.0698 15.782C57.2005 15.6933 57.3078 15.614 57.3918 15.544C57.4758 15.4693 57.5598 15.432 57.6438 15.432C57.7511 15.432 57.8305 15.4717 57.8818 15.551L58.2318 16.006C57.9238 16.384 57.5388 16.6617 57.0768 16.839C56.6148 17.0117 56.1271 17.098 55.6138 17.098C55.1705 17.098 54.7575 17.0163 54.3748 16.853C53.9968 16.6897 53.6678 16.454 53.3878 16.146C53.1078 15.8333 52.8861 15.4507 52.7228 14.998C52.5641 14.5453 52.4848 14.0297 52.4848 13.451C52.4848 12.9237 52.5571 12.436 52.7018 11.988C52.8511 11.54 53.0658 11.155 53.3458 10.833C53.6305 10.5063 53.9805 10.252 54.3958 10.07C54.8111 9.888 55.2871 9.797 55.8238 9.797C56.3185 9.797 56.7571 9.87867 57.1398 10.042C57.5225 10.2007 57.8608 10.427 58.1548 10.721L57.8258 11.169ZM60.91 6.689V17H59.664V6.689H60.91ZM65.913 9.797C66.3377 9.797 66.7297 9.86933 67.089 10.014C67.4483 10.154 67.7587 10.3593 68.02 10.63C68.2813 10.896 68.4843 11.2273 68.629 11.624C68.7783 12.016 68.853 12.464 68.853 12.968C68.853 13.164 68.832 13.2947 68.79 13.36C68.748 13.4253 68.6687 13.458 68.552 13.458H63.834C63.8433 13.906 63.904 14.2957 64.016 14.627C64.128 14.9583 64.282 15.236 64.478 15.46C64.674 15.6793 64.9073 15.845 65.178 15.957C65.4487 16.0643 65.752 16.118 66.088 16.118C66.4007 16.118 66.669 16.083 66.893 16.013C67.1217 15.9383 67.3177 15.859 67.481 15.775C67.6443 15.691 67.7797 15.614 67.887 15.544C67.999 15.4693 68.0947 15.432 68.174 15.432C68.2767 15.432 68.356 15.4717 68.412 15.551L68.762 16.006C68.608 16.1927 68.4237 16.356 68.209 16.496C67.9943 16.6313 67.7633 16.7433 67.516 16.832C67.2733 16.9207 67.0213 16.986 66.76 17.028C66.4987 17.0747 66.2397 17.098 65.983 17.098C65.493 17.098 65.0403 17.0163 64.625 16.853C64.2143 16.685 63.8573 16.4423 63.554 16.125C63.2553 15.803 63.022 15.4063 62.854 14.935C62.686 14.4637 62.602 13.9223 62.602 13.311C62.602 12.8163 62.6767 12.3543 62.826 11.925C62.98 11.4957 63.1993 11.1247 63.484 10.812C63.7687 10.4947 64.1163 10.2473 64.527 10.07C64.9377 9.888 65.3997 9.797 65.913 9.797ZM65.941 10.714C65.339 10.714 64.8653 10.889 64.52 11.239C64.1747 11.5843 63.96 12.065 63.876 12.681H67.733C67.733 12.3917 67.6933 12.128 67.614 11.89C67.5347 11.6473 67.418 11.4397 67.264 11.267C67.11 11.0897 66.921 10.9543 66.697 10.861C66.4777 10.763 66.2257 10.714 65.941 10.714Z" fill="#424551"/>
</svg>
